<?xml version="1.0" encoding="UTF-8"?>
<svg version="1.1" xmlns="http://www.w3.org/2000/svg" width="500" height="500">
<path d="M0 0 C165 0 330 0 500 0 C500 165 500 330 500 500 C335 500 170 500 0 500 C0 335 0 170 0 0 Z " fill="#000000" transform="translate(0,0)"/>
<path d="M0 0 C9.49556059 5.82036853 15.73797438 13.55911094 18.90722656 24.32983398 C19.73007533 28.24017411 19.53616069 32.21011908 19.5390625 36.19140625 C19.55130859 37.06023437 19.56355469 37.9290625 19.57617188 38.82421875 C19.60085727 49.78453609 16.69339181 60.15528344 9.0390625 68.31640625 C5.53289754 71.55579779 1.7774105 73.69588489 -2.6484375 75.44140625 C-3.50824219 75.79847656 -4.36804688 76.15554688 -5.25390625 76.5234375 C-14.67027364 79.06986597 -28.71623455 79.40257306 -37.51953125 74.8828125 C-47.21170123 68.32059099 -54.19610722 60.16936229 -56.6484375 48.44140625 C-57.72499936 33.89965412 -58.15703608 20.64526155 -48.3984375 9.06640625 C-36.30674919 -3.44223683 -16.19179369 -7.37626157 0 0 Z " fill="#37B3FC" transform="translate(262.6484375,261.55859375)"/>
<path d="M0 0 C6.27 0 12.54 0 19 0 C19.37511719 1.82660156 19.75023437 3.65320313 20.13671875 5.53515625 C23.32943565 21.04488442 26.59294586 36.53563277 30 52 C31.89529679 49.15705482 32.55322291 47.41256431 33.3671875 44.16796875 C33.61106201 43.21116211 33.85493652 42.25435547 34.10620117 41.26855469 C34.35990479 40.25180664 34.6136084 39.23505859 34.875 38.1875 C35.40891895 36.09213225 35.94407191 33.99707855 36.48046875 31.90234375 C36.74005371 30.88640137 36.99963867 29.87045898 37.26708984 28.82373047 C38.46677534 24.20162438 39.78815564 19.61941838 41.125 15.03515625 C42.27563065 11.04390619 43.33657 7.0304444 44.38671875 3.01171875 C45 1 45 1 46 0 C48.86267567 -0.07325168 51.700719 -0.09238205 54.5625 -0.0625 C55.36880859 -0.05798828 56.17511719 -0.05347656 57.00585938 -0.04882812 C59.00393756 -0.03700518 61.00197783 -0.01906914 63 0 C64.96962943 5.11650864 66.74206272 10.2271218 68.25 15.5 C68.67557149 16.97271688 69.10136696 18.44536905 69.52734375 19.91796875 C69.7579248 20.7176709 69.98850586 21.51737305 70.22607422 22.34130859 C71.09663715 25.33198062 71.98697003 28.31641575 72.87890625 31.30078125 C73.52345575 33.47134875 74.16798711 35.64192163 74.8125 37.8125 C75.12670898 38.85664063 75.44091797 39.90078125 75.76464844 40.9765625 C76.20019043 42.45189453 76.20019043 42.45189453 76.64453125 43.95703125 C76.90596924 44.83335205 77.16740723 45.70967285 77.43676758 46.61254883 C78 49 78 49 78 53 C78.66 53 79.32 53 80 53 C80.09724365 52.21270508 80.1944873 51.42541016 80.29467773 50.61425781 C81.56166693 41.04023236 83.44004917 31.67261188 85.51391602 22.24560547 C86.07059409 19.71317856 86.61881287 17.17902078 87.16601562 14.64453125 C87.51774414 13.02854019 87.86993969 11.41265069 88.22265625 9.796875 C88.38621109 9.0417865 88.54976593 8.286698 88.71827698 7.50872803 C89.88403339 2.23193323 89.88403339 2.23193323 91 0 C96.61 0 102.22 0 108 0 C106.87296137 9.01630901 106.87296137 9.01630901 105.90625 13.38671875 C105.68477295 14.39001221 105.4632959 15.39330566 105.23510742 16.42700195 C104.87122925 18.04094849 104.87122925 18.04094849 104.5 19.6875 C104.24516846 20.82856201 103.99033691 21.96962402 103.7277832 23.14526367 C100.96952149 35.36226992 97.98900356 47.52589351 94.984375 59.68432617 C94.79414261 60.45718964 94.60391022 61.2300531 94.40791321 62.02633667 C94.05132126 63.47427432 93.69288349 64.92175922 93.3321991 66.36868286 C92.37755086 70.24850377 91.65922867 74.044628 91 78 C84.07 78 77.14 78 70 78 C66.62981455 70.13623395 66.62981455 70.13623395 65.60546875 65.98828125 C65.3748877 65.0746582 65.14430664 64.16103516 64.90673828 63.21972656 C64.66938965 62.2603418 64.43204102 61.30095703 64.1875 60.3125 C61.96633774 51.53260941 59.5359503 42.85085972 56.82885742 34.20825195 C56.5888501 33.43312256 56.34884277 32.65799316 56.1015625 31.859375 C55.78179443 30.84568848 55.78179443 30.84568848 55.45556641 29.81152344 C55 28 55 28 55 25 C54.34 25 53.68 25 53 25 C52.88825439 25.58773193 52.77650879 26.17546387 52.66137695 26.78100586 C51.36828515 33.42849891 49.83807523 39.9953517 48.1875 46.5625 C47.92686768 47.60229004 47.66623535 48.64208008 47.39770508 49.71337891 C41.4961833 73.00763339 41.4961833 73.00763339 39 78 C32.07 78 25.14 78 18 78 C13.99724467 61.63615221 10.11286182 45.25464255 6.43115234 28.81567383 C4.69142907 21.04965667 2.9219816 13.29273556 1.06567383 5.55371094 C0 1.09563216 0 1.09563216 0 0 Z " fill="#37B2FA" transform="translate(292,260)"/>
<path d="M0 0 C3.29396643 2.24894183 3.91125561 3.19751121 5.8125 7 C2.8425 11.29 -0.1275 15.58 -3.1875 20 C-7.1875 19 -7.1875 19 -9.5 17.125 C-15.47604548 12.39975474 -20.8496489 11.49460687 -28.25 11.5625 C-29.02666016 11.54251953 -29.80332031 11.52253906 -30.60351562 11.50195312 C-36.45676468 11.50690931 -39.96302716 12.77552716 -44.1875 17 C-44.50358345 18.96207724 -44.50358345 18.96207724 -44.5625 21.25 C-44.61148438 22.01828125 -44.66046875 22.7865625 -44.7109375 23.578125 C-43.91486333 27.26145325 -42.08758518 28.67291552 -39.1875 31 C-35.92651635 32.31185246 -35.92651635 32.31185246 -32.3125 33.0625 C-30.97915759 33.38798366 -29.64582453 33.71350562 -28.3125 34.0390625 C-26.93764398 34.35999243 -25.56264373 34.68030513 -24.1875 35 C-11.26101434 38.07505061 -0.98063474 40.95397953 7.0625 52.125 C11.45866865 59.34727706 10.58800891 68.80480516 9.8125 77 C7.87447679 84.73318529 2.513954 90.81843878 -4.1875 95 C-11.81530197 98.57588045 -18.69371742 99.65490262 -27.0625 99.5 C-28.6395874 99.48187256 -28.6395874 99.48187256 -30.24853516 99.46337891 C-42.95672126 99.13914036 -54.53529003 95.94422992 -64.171875 87.19921875 C-67.2014662 83.95422084 -67.2014662 83.95422084 -68.1875 82 C-68.03140076 77.88938672 -65.17310439 75.26465871 -62.625 72.25 C-61.79871094 71.26515625 -60.97242188 70.2803125 -60.12109375 69.265625 C-59.48300781 68.51796875 -58.84492187 67.7703125 -58.1875 67 C-53.89134844 67.82653233 -52.19902368 69.84157273 -49.1875 73 C-43.20341182 78.64214028 -36.16048499 81.2227504 -28 81.4375 C-22.3131672 81.22552294 -17.5991318 80.54718019 -13.51953125 76.23828125 C-11.8570995 73.44481089 -11.8496413 71.66630736 -11.9375 68.4375 C-11.95296875 67.48746094 -11.9684375 66.53742188 -11.984375 65.55859375 C-12.09393658 62.88042887 -12.09393658 62.88042887 -13.1875 60 C-21.03813416 56.11734941 -30.34138265 54.34803624 -38.875 52.625 C-47.61561649 50.64237236 -55.21034265 47.00879811 -60.96875 40.00390625 C-64.54345257 34.12627029 -65.72299041 29.35574191 -65.625 22.5625 C-65.6103772 21.4343689 -65.6103772 21.4343689 -65.59545898 20.28344727 C-65.32705537 11.91926288 -63.05927556 7.57695536 -57.0625 1.75 C-41.71782326 -11.15981894 -16.40999142 -10.23027946 0 0 Z " fill="#37B3FA" transform="translate(91.1875,240)"/>
<path d="M0 0 C0.75539062 -0.01546875 1.51078125 -0.0309375 2.2890625 -0.046875 C9.35432382 0.0016835 14.59062526 2.25490081 19.75 7.0625 C25.99389692 15.50923498 26.56320242 25.13112926 26.390625 35.26171875 C26.38496521 36.53352493 26.37930542 37.80533112 26.37347412 39.11567688 C26.35501765 42.45823965 26.31923624 45.79965824 26.2746582 49.14190674 C26.23336129 52.56781252 26.21539055 55.99383767 26.1953125 59.41992188 C26.15143473 66.1136312 26.08250455 72.80665987 26 79.5 C19.4 79.5 12.8 79.5 6 79.5 C5.98541748 77.8600708 5.97083496 76.2201416 5.95581055 74.53051758 C5.89783377 68.44549771 5.82059992 62.36084811 5.73754883 56.27612305 C5.70429675 53.64272064 5.67626576 51.00924691 5.65356445 48.37573242 C5.62002471 44.59002289 5.5677068 40.80496711 5.51171875 37.01953125 C5.50532883 35.84227982 5.4989389 34.66502838 5.49235535 33.45210266 C5.46266411 31.80095711 5.46266411 31.80095711 5.43237305 30.11645508 C5.41571846 28.66750603 5.41571846 28.66750603 5.39872742 27.18928528 C4.92591939 24.00035062 3.8768127 22.10122152 2 19.5 C-2.04554222 17.07267467 -6.3977229 16.94002712 -11 17.5 C-16.17067543 19.13738055 -19.14668058 20.85014613 -22 25.5 C-24.16846719 31.49883744 -24.34022459 37.12415004 -24.4140625 43.46484375 C-24.43342865 44.49815323 -24.4527948 45.53146271 -24.4727478 46.59608459 C-24.53223299 49.87647405 -24.57880452 53.15689918 -24.625 56.4375 C-24.66320836 58.66993666 -24.70226174 60.90235902 -24.7421875 63.13476562 C-24.83790899 68.58972683 -24.92205438 74.04475701 -25 79.5 C-31.6 79.5 -38.2 79.5 -45 79.5 C-45 53.76 -45 28.02 -45 1.5 C-38.73 1.5 -32.46 1.5 -26 1.5 C-26 5.46 -26 9.42 -26 13.5 C-23.87459154 11.37459154 -21.76076179 9.23417977 -19.75 7 C-13.76283302 1.55712093 -7.98679608 -0.16355214 0 0 Z " fill="#36B2F9" transform="translate(163,258.5)"/>
<path d="M0 0 C6.93 0 13.86 0 21 0 C21 32.67 21 65.34 21 99 C14.07 99 7.14 99 0 99 C0 66.33 0 33.66 0 0 Z " fill="#FFFFFF" transform="translate(420,243)"/>
<path d="M0 0 C5.95261333 3.40627967 8.54744696 7.65015338 10.70703125 14.12890625 C11.93297452 32.96019881 11.93297452 32.96019881 6.70703125 41.12890625 C2.62173422 45.21420328 -1.36852318 47.41430604 -7.16796875 47.44140625 C-13.31062318 47.28806539 -16.70903695 45.7488365 -21.04296875 41.31640625 C-25.25713956 35.34633094 -25.65683812 29.83298521 -25.66796875 22.75390625 C-25.69246094 21.94179688 -25.71695313 21.1296875 -25.7421875 20.29296875 C-25.77327318 13.82714635 -24.35667942 8.35904071 -19.80981445 3.56518555 C-14.17316536 -1.33780169 -7.06910649 -2.6855379 0 0 Z " fill="#000203" transform="translate(251.29296875,275.87109375)"/>
<path d="M0 0 C6.04112036 3.93375279 10.47399245 9.92487408 12 17 C12.96237048 25.64652861 10.9503487 32.43607887 5.625 39.3125 C0.51071384 44.54855487 -3.60844863 46.85088271 -10.8203125 47.16796875 C-12.25517383 47.17985987 -13.69008997 47.18621654 -15.125 47.1875 C-15.85332031 47.19974609 -16.58164062 47.21199219 -17.33203125 47.22460938 C-19.22282978 47.22985188 -21.11315581 47.12233385 -23 47 C-23.66 46.34 -24.32 45.68 -25 45 C-24.20335937 44.91363281 -23.40671875 44.82726562 -22.5859375 44.73828125 C-15.86951329 43.84766052 -11.55844853 43.15824439 -7 38 C-4.4017312 33.74828741 -4.39242237 28.85181559 -5 24 C-6.36997157 21.12853006 -6.36997157 21.12853006 -8 19 C-8 18.34 -8 17.68 -8 17 C-8.78375 16.690625 -9.5675 16.38125 -10.375 16.0625 C-13 15 -13 15 -15 14 C-20.20185538 13.48151441 -24.63560371 13.37981987 -29.4375 15.5625 C-33.30831111 19.24449105 -35.75872375 22.33428655 -36.2421875 27.67578125 C-36.24913424 30.1314551 -36.17737227 32.55127731 -36 35 C-39.6449322 31.3550678 -40.32331696 27.34327022 -40.4375 22.3125 C-40.29555448 15.09989344 -38.16490102 9.55581516 -33.35546875 4.15234375 C-23.93907294 -4.49883705 -11.4072811 -5.70364055 0 0 Z " fill="#F8F8F8" transform="translate(446,176)"/>
<path d="M0 0 C4.56135067 2.32033925 7.28575325 5.57449648 8.859375 10.3515625 C9.72745392 16.01380453 9.13938237 20.54088503 5.859375 25.3515625 C1.5464247 29.69986486 -2.22024422 31.50477468 -8.328125 31.7890625 C-13.59444812 31.73318639 -16.65319149 30.57489415 -20.61328125 27.125 C-23.80486417 23.41917226 -24.01318047 19.54104474 -24.515625 14.8515625 C-23.9115217 9.21326502 -21.68565167 5.74944377 -17.515625 1.9765625 C-12.29623326 -1.59460027 -6.06633955 -1.8376138 0 0 Z " fill="#060606" transform="translate(433.140625,189.6484375)"/>
<path d="M0 0 C1.32 0.66 2.64 1.32 4 2 C4 4.64 4 7.28 4 10 C2.125 10.625 2.125 10.625 0 11 C-2 9 -2 9 -2.25 5.5 C-2 2 -2 2 0 0 Z " fill="#EEEEEE" transform="translate(434,195)"/>
</svg>
